<svg width="344" height="105" viewBox="0 0 344 105" fill="none" xmlns="http://www.w3.org/2000/svg">
<g clip-path="url(#clip0_25_507)">
<path d="M328.528 55.5589C327.914 50.9225 326.273 46.7207 323.378 43.6432H323.377C320.299 40.7494 316.098 39.1082 311.461 38.4942C307.031 37.9069 304.017 38.052 304.017 38.052C304.017 38.052 301 37.9069 296.571 38.494C291.934 39.108 287.732 40.7494 284.654 43.643C281.76 46.7205 280.118 50.9224 279.504 55.5589C278.917 59.9869 279.062 63.0027 279.062 63.0027C279.062 63.0027 278.917 66.0174 279.504 70.4467C280.118 75.0832 281.76 79.2839 284.654 82.361V82.3622C287.732 85.2557 291.934 86.8967 296.571 87.5115C301 88.0985 304.016 87.9529 304.016 87.9529C304.016 87.9529 307.031 88.0985 311.461 87.5115C316.097 86.8969 320.299 85.2559 323.377 82.3622L323.378 82.361C326.273 79.2839 327.914 75.0832 328.528 70.4467C329.115 66.0174 328.969 63.0027 328.969 63.0027C328.969 63.0027 329.115 59.9867 328.528 55.5589Z" fill="white"/>
<path d="M288.242 55.6875H292.725C293.407 55.6875 294.035 55.8102 294.609 56.055C295.183 56.2998 295.679 56.6315 296.098 57.0505C296.516 57.4692 296.845 57.9622 297.084 58.5302C297.323 59.0978 297.443 59.7045 297.443 60.3497C297.443 60.9955 297.323 61.6052 297.084 62.1795C296.845 62.753 296.516 63.2492 296.098 63.6673C295.679 64.0862 295.18 64.4188 294.6 64.6632C294.02 64.9087 293.389 65.031 292.708 65.031H290.681V68.7788H288.242V55.6875ZM290.681 57.947V62.7713H292.546C292.905 62.7713 293.234 62.7085 293.532 62.583C293.831 62.4575 294.088 62.2838 294.304 62.0625C294.519 61.8418 294.687 61.5845 294.806 61.2915C294.926 60.9985 294.986 60.685 294.986 60.3497C294.986 60.0157 294.926 59.7013 294.806 59.4083C294.687 59.1153 294.519 58.862 294.304 58.6463C294.088 58.4312 293.831 58.2607 293.532 58.1353C293.234 58.0098 292.905 57.947 292.546 57.947H290.681Z" fill="black"/>
<path d="M303.075 68.7962C302.441 68.7962 301.816 68.6792 301.201 68.4429C300.584 68.2067 300.032 67.8639 299.541 67.414C299.051 66.9647 298.656 66.4142 298.357 65.7629C298.058 65.1125 297.909 64.3715 297.909 63.542C297.909 62.7005 298.056 61.955 298.348 61.3035C298.641 60.6525 299.03 60.1017 299.515 59.6524C299.999 59.2034 300.555 58.8604 301.182 58.6242C301.81 58.3882 302.453 58.2695 303.111 58.2695C303.803 58.2695 304.443 58.3954 305.03 58.646C305.615 58.8969 306.1 59.2384 306.483 59.6719V58.288H308.904V68.7789H306.483V67.2882C306.1 67.7572 305.61 68.1254 305.011 68.3937C304.414 68.6632 303.768 68.7962 303.075 68.7962ZM303.469 66.5735C303.923 66.5735 304.342 66.4944 304.725 66.3374C305.108 66.1802 305.436 65.961 305.711 65.6804C305.986 65.3992 306.204 65.0735 306.366 64.703C306.528 64.3339 306.609 63.9349 306.609 63.507C306.609 63.092 306.528 62.6987 306.366 62.3282C306.204 61.9584 305.986 61.6352 305.711 61.36C305.436 61.0845 305.108 60.8687 304.725 60.7119C304.342 60.5545 303.923 60.4759 303.469 60.4759C303.027 60.4759 302.612 60.5545 302.223 60.7119C301.834 60.8687 301.496 61.0817 301.209 61.351C300.922 61.6212 300.698 61.9412 300.537 62.3119C300.375 62.6824 300.295 63.081 300.295 63.5069C300.295 63.9345 300.375 64.336 300.537 64.712C300.698 65.088 300.922 65.4127 301.209 65.688C301.496 65.9644 301.834 66.1799 302.223 66.3372C302.612 66.4945 303.027 66.5735 303.469 66.5735Z" fill="black"/>
<path d="M313.998 68.3248L309.693 58.2876H312.276L315.199 65.4658L317.962 58.2876H320.509L314.248 73.6024H311.792L313.998 68.3248Z" fill="black"/>
</g>
<path d="M184.363 63.2128C185.636 63.2405 186.917 63.1566 188.186 63.2564C189.47 63.496 189.78 65.4406 188.638 66.0774C187.86 66.497 186.935 66.2337 186.091 66.3077H184.363V63.2128ZM188.922 59.7098C189.205 60.7085 188.242 61.6051 187.28 61.4676H184.363C184.384 60.5258 184.323 59.5037 184.393 58.6115C185.561 58.6444 186.741 58.5444 187.903 58.6638C188.402 58.7892 188.82 59.1996 188.922 59.7098ZM195.943 44.9002C195.997 46.8074 195.95 48.8153 195.966 50.7612C195.962 58.6723 195.974 66.5832 195.96 74.4947C195.909 77.4596 193.281 80.0358 190.337 80.095C187.389 80.107 184.442 80.0969 181.494 80.1001V68.1402C184.706 68.1236 187.919 68.1739 191.129 68.1151C192.618 68.0216 194.25 67.039 194.319 65.4001C194.494 63.7542 192.942 62.6157 191.469 62.4359C190.903 62.4212 190.919 62.2708 191.469 62.2052C192.874 61.9015 193.978 60.4472 193.564 58.9906C193.212 57.4586 191.519 56.8657 190.11 56.8687C187.239 56.8491 184.367 56.8659 181.495 56.8603C181.513 54.6275 181.456 52.3923 181.526 50.1612C181.753 47.2498 184.447 44.8489 187.35 44.901C190.214 44.9005 193.079 44.9005 195.943 44.9004V44.9002Z" fill="white"/>
<path d="M149.042 50.4628C149.116 47.5026 151.754 44.9475 154.695 44.9042C157.631 44.8951 160.568 44.9029 163.504 44.9003C163.496 54.8044 163.52 64.7096 163.492 74.6132C163.379 77.5374 160.769 80.0438 157.861 80.0956C154.919 80.1063 151.976 80.0971 149.034 80.1001V67.7369C151.892 68.412 154.889 68.6994 157.804 68.2516C159.547 67.9712 161.453 67.1155 162.043 65.3076C162.477 63.7611 162.233 62.1336 162.298 60.5464V56.8603H157.252C157.23 59.2982 157.299 61.7403 157.216 64.1752C157.08 65.6719 155.598 66.6228 154.186 66.572C152.436 66.5905 148.967 65.3033 148.967 65.3033C148.958 60.7358 149.017 55.0156 149.042 50.4632V50.4628Z" fill="white"/>
<path d="M165.386 58.3469C165.121 58.4033 165.333 57.4423 165.265 57.0778C165.283 54.773 165.227 52.4657 165.296 50.1625C165.523 47.2388 168.237 44.8319 171.152 44.9004H179.736C179.727 54.8045 179.751 64.7097 179.723 74.6133C179.61 77.5375 177 80.0438 174.091 80.0957C171.149 80.1068 168.207 80.0974 165.265 80.1003V66.5548C167.274 68.2034 170.005 68.4601 172.509 68.4645C174.396 68.4639 176.272 68.1729 178.105 67.7377V65.2561C176.039 66.2855 173.611 66.9393 171.322 66.3479C169.725 65.9504 168.565 64.4069 168.591 62.7586C168.406 61.0446 169.411 59.2349 171.095 58.7254C173.187 58.0707 175.466 58.5714 177.426 59.4226C177.846 59.6425 178.273 59.9153 178.105 59.2133V57.2627C174.826 56.4827 171.337 56.1957 168.043 57.0442C167.09 57.3132 166.161 57.7211 165.386 58.3471V58.3469Z" fill="white"/>
<path d="M11.7502 43H26.7259C28.8164 43 30.1166 44.7039 29.6289 46.8013L22.6566 76.736C22.1646 78.8262 20.0716 80.5315 17.9796 80.5315H3.00532C0.917759 80.5315 -0.385369 78.8262 0.1023 76.736L7.0775 46.8013C7.56517 44.7039 9.65711 43 11.7502 43Z" fill="white"/>
<path d="M25.4797 43H42.7014C44.7915 43 43.849 44.7039 43.3574 46.8013L36.3862 76.736C35.897 78.8262 36.0496 80.5315 33.9551 80.5315H16.7334C14.6389 80.5315 13.3427 78.8262 13.8347 76.736L20.8056 46.8013C21.3005 44.7039 23.3881 43 25.4797 43Z" fill="white"/>
<path d="M42.0183 43H56.994C59.0874 43 60.3876 44.7039 59.896 46.8013L52.9248 76.736C52.4327 78.8262 50.3382 80.5315 48.2452 80.5315H33.2764C31.1819 80.5315 29.8828 78.8262 30.3734 76.736L37.3456 46.8013C37.8333 44.7039 39.9238 43 42.0183 43Z" fill="white"/>
<path d="M15.6613 52.5934C14.1212 52.6091 13.6664 52.5934 13.5211 52.5591C13.4653 52.8244 12.4261 57.6183 12.4231 57.6223C12.1994 58.5921 12.0366 59.2835 11.4836 59.7299C11.1697 59.9895 10.8032 60.1147 10.3783 60.1147C9.69533 60.1147 9.29746 59.7755 9.23066 59.1324L9.21788 58.9115C9.21788 58.9115 9.42595 57.6124 9.42595 57.6051C9.42595 57.6051 10.5166 53.2366 10.7119 52.6591C10.7221 52.6262 10.7251 52.6091 10.7276 52.5934C8.60465 52.612 8.22831 52.5934 8.20239 52.5591C8.18816 52.6062 8.13559 52.877 8.13559 52.877L7.02191 57.8008L6.92628 58.2184L6.74121 59.5843C6.74121 59.9895 6.82079 60.3202 6.97921 60.5998C7.48659 61.4864 8.9339 61.6193 9.75264 61.6193C10.8076 61.6193 11.7971 61.3952 12.4658 60.986C13.6266 60.3001 13.9303 59.228 14.2012 58.2753L14.3267 57.7865C14.3267 57.7865 15.4503 53.2493 15.6412 52.6591C15.6485 52.6262 15.6514 52.6091 15.6613 52.5934ZM19.484 56.2536C19.2132 56.2536 18.7182 56.3193 18.2736 56.5372C18.1123 56.6201 17.9597 56.7157 17.7987 56.811L17.944 56.2865L17.8644 56.1981C16.9216 56.389 16.7106 56.4146 15.8396 56.5372L15.7666 56.5858C15.6655 57.4242 15.5757 58.0546 15.2008 59.7027C15.0581 60.3101 14.9099 60.9233 14.7614 61.5293L14.8015 61.6063C15.694 61.5592 15.9648 61.5592 16.7405 61.572L16.8033 61.5037C16.9019 60.9989 16.9146 60.8806 17.1329 59.8582C17.2355 59.3734 17.4494 58.3083 17.5549 57.9291C17.7487 57.8393 17.94 57.7509 18.1225 57.7509C18.5572 57.7509 18.5043 58.1302 18.4875 58.2813C18.4689 58.535 18.3105 59.3636 18.148 60.075L18.0396 60.5342C17.9641 60.8733 17.8812 61.2029 17.8056 61.5391L17.8385 61.6063C18.7182 61.5592 18.9865 61.5592 19.7377 61.572L19.826 61.5037C19.9618 60.7153 20.0016 60.5043 20.2425 59.3563L20.3637 58.8288C20.5992 57.7965 20.7174 57.2731 20.5393 56.8468C20.3509 56.3689 19.899 56.2536 19.484 56.2536ZM23.7545 57.3344C23.2869 57.4242 22.9887 57.4841 22.6923 57.5227C22.3984 57.5698 22.1119 57.6125 21.66 57.6753L21.6242 57.7078L21.5914 57.7337C21.5443 58.0703 21.5114 58.3612 21.449 58.7032C21.3961 59.0569 21.3147 59.4588 21.1822 60.0363C21.0796 60.4783 21.0267 60.6324 20.9683 60.7879C20.9113 60.9434 20.8485 61.0945 20.7332 61.5292L20.7602 61.5694L20.7828 61.6062C21.2052 61.5862 21.4815 61.5719 21.7655 61.5694C22.0491 61.5592 22.3429 61.5694 22.7978 61.5719L22.8375 61.5394L22.8803 61.5037C22.946 61.1116 22.9558 61.0061 22.996 60.8149C23.0358 60.6097 23.1044 60.3257 23.2727 59.5672C23.3522 59.211 23.4409 58.8558 23.5234 58.4922C23.6092 58.1301 23.699 57.7735 23.7844 57.4173L23.7716 57.3742L23.7545 57.3344ZM23.7644 55.8772C23.3396 55.6264 22.5938 55.706 22.0919 56.0524C21.5915 56.3918 21.5345 56.8737 21.958 57.1277C22.3755 57.3716 23.1242 57.2989 23.6217 56.9496C24.1211 56.6028 24.1835 56.1254 23.7644 55.8772ZM26.334 61.6848C27.1936 61.6848 28.0748 61.4479 28.7381 60.7449C29.2484 60.1747 29.4823 59.3264 29.5634 58.9771C29.8273 57.8193 29.6218 57.2787 29.3637 56.9494C28.9717 56.4475 28.2789 56.2865 27.5601 56.2865C27.1279 56.2865 26.0986 56.3292 25.2944 57.0706C24.717 57.6053 24.4501 58.331 24.2892 59.0267C24.1267 59.7356 23.9398 61.0117 25.1134 61.4866C25.4755 61.6421 25.9975 61.6848 26.334 61.6848ZM26.2669 59.0797C26.4651 58.2029 26.699 57.467 27.2962 57.467C27.7642 57.467 27.7981 58.0145 27.5901 58.8942C27.5528 59.0895 27.382 59.8156 27.1509 60.1247C26.9896 60.3529 26.7987 60.4912 26.5877 60.4912C26.5249 60.4912 26.1515 60.4912 26.1457 59.9367C26.1427 59.663 26.1986 59.3834 26.2669 59.0797ZM31.7123 61.5721L31.7794 61.5038C31.8747 60.999 31.8904 60.8804 32.1014 59.8583C32.2069 59.3736 32.4251 58.3084 32.5277 57.9292C32.7219 57.839 32.9099 57.7507 33.0982 57.7507C33.5301 57.7507 33.4775 58.1299 33.4603 58.281C33.4446 58.5351 33.2862 59.3633 33.1209 60.0748L33.0183 60.534C32.9398 60.8734 32.8544 61.2027 32.7788 61.5392L32.8117 61.6064C33.6943 61.5593 33.9524 61.5593 34.708 61.5721L34.7992 61.5038C34.9317 60.715 34.9675 60.504 35.2157 59.3564L35.334 58.8286C35.5705 57.7963 35.6903 57.2732 35.5151 56.8469C35.3212 56.3691 34.8664 56.2537 34.4572 56.2537C34.186 56.2537 33.6885 56.319 33.2464 56.5373C33.0884 56.6202 32.93 56.7155 32.7745 56.8111L32.9099 56.2866L32.8373 56.1979C31.8948 56.3891 31.6794 56.4147 30.8096 56.5373L30.7428 56.5859C30.6373 57.4243 30.5515 58.0544 30.1766 59.7028C30.0339 60.3102 29.8857 60.9234 29.7375 61.5294L29.7773 61.6064C30.6712 61.5593 30.938 61.5593 31.7123 61.5721ZM38.197 61.6062C38.2525 61.3354 38.5821 59.73 38.5851 59.73C38.5851 59.73 38.8658 58.5521 38.8829 58.5094C38.8829 58.5094 38.9713 58.3867 39.0596 58.3382H39.1895C40.4157 58.3382 41.8002 58.3382 42.8854 57.5399C43.6238 56.9923 44.1287 56.1838 44.3539 55.2012C44.4123 54.9603 44.4553 54.6737 44.4553 54.3872C44.4553 54.0108 44.3798 53.6385 44.1615 53.3476C43.6081 52.5734 42.5061 52.5591 41.234 52.5533C41.23 52.5533 40.6069 52.5591 40.6069 52.5591C38.9786 52.5792 38.3255 52.5734 38.0572 52.5405C38.0346 52.6592 37.9919 52.8701 37.9919 52.8701C37.9919 52.8701 37.4086 55.5735 37.4086 55.5779C37.4086 55.5779 36.0128 61.3255 35.9471 61.5963C37.3688 61.5792 37.9518 61.5792 38.197 61.6062ZM39.2779 56.804C39.2779 56.804 39.8981 54.1061 39.8951 54.1163L39.9152 53.978L39.924 53.8725L40.1718 53.898C40.1718 53.898 41.4509 54.0079 41.4808 54.0108C41.9856 54.2061 42.1937 54.7095 42.0484 55.3665C41.9159 55.967 41.5264 56.4718 41.026 56.7156C40.6139 56.9222 40.109 56.9394 39.5889 56.9394H39.2523L39.2779 56.804ZM43.1392 59.1296C42.9753 59.8283 42.787 61.1044 43.9547 61.5592C44.327 61.7176 44.6606 61.7647 44.9997 61.7476C45.3578 61.7282 45.6896 61.5486 45.997 61.2902C45.9692 61.3964 45.9415 61.5026 45.9138 61.6092L45.9667 61.6775C46.8066 61.6421 47.0672 61.6421 47.9772 61.649L48.0597 61.5862C48.1926 60.8051 48.3178 60.0466 48.6631 58.5522C48.8314 57.8364 48.9993 57.1275 49.1719 56.4146L49.1449 56.3361C48.2054 56.5102 47.9542 56.5475 47.0504 56.6756L46.9818 56.7315C46.9727 56.8041 46.9632 56.8738 46.9544 56.9435C46.8139 56.7165 46.6102 56.5227 46.2959 56.4018C45.894 56.2438 44.9501 56.4475 44.1387 57.1863C43.5685 57.7137 43.2947 58.4365 43.1392 59.1296ZM45.1125 59.1724C45.3137 58.3113 45.5447 57.5827 46.1434 57.5827C46.5219 57.5827 46.7212 57.932 46.6807 58.5277C46.6485 58.6763 46.6139 58.8329 46.5726 59.0099C46.5128 59.2658 46.4478 59.5195 46.3846 59.7735C46.3204 59.9473 46.2456 60.1112 46.1634 60.2203C46.0094 60.4386 45.6429 60.574 45.4319 60.574C45.3721 60.574 45.0027 60.574 44.9899 60.0294C44.987 59.7582 45.0428 59.479 45.1125 59.1724ZM55.4173 56.3292L55.3447 56.2463C54.4149 56.4347 54.2467 56.4646 53.3925 56.5799L53.3297 56.6427C53.3268 56.6529 53.3242 56.6686 53.3199 56.6829L53.317 56.6686C52.6811 58.1357 52.6997 57.8192 52.1821 58.9741C52.1792 58.9215 52.1792 58.8887 52.1763 58.8328L52.0467 56.3292L51.9653 56.2463C50.9914 56.4347 50.9684 56.4646 50.069 56.5799L49.9989 56.6427C49.989 56.6726 49.989 56.7055 49.9832 56.7413L49.989 56.754C50.1015 57.3286 50.0745 57.2005 50.1873 58.1072C50.2398 58.5521 50.3099 58.9997 50.3625 59.4391C50.4512 60.1747 50.5008 60.5368 50.6092 61.6592C50.0018 62.6616 49.858 63.0408 49.2732 63.9205L49.2773 63.9293L48.8655 64.5805C48.8184 64.6491 48.7757 64.6962 48.7159 64.7163C48.6501 64.7488 48.5647 64.7546 48.4461 64.7546H48.218L47.8789 65.8825L49.0422 65.9026C49.7251 65.8997 50.1544 65.5803 50.3855 65.151L51.117 63.8975H51.1053L51.1823 63.8092C51.6744 62.7499 55.4173 56.3292 55.4173 56.3292ZM43.1392 71.1427H42.6457L44.4723 65.1012H45.0782L45.2706 64.4788L45.2892 65.1709C45.2665 65.5987 45.6031 65.978 46.4872 65.9152H47.5096L47.8615 64.7519H47.4767C47.2555 64.7519 47.153 64.696 47.1657 64.5763L47.1471 63.8722H45.2538V63.8758C44.6416 63.8886 42.8136 63.9346 42.4435 64.0331C41.9956 64.1485 41.5236 64.4879 41.5236 64.4879L41.709 63.8649H39.938L39.5689 65.1012L37.7179 71.235H37.3587L37.0065 72.3899H40.534L40.4158 72.775H42.154L42.2693 72.3899H42.757L43.1392 71.1427ZM41.6919 66.3287C41.4083 66.4072 40.8804 66.6452 40.8804 66.6452L41.3499 65.1012H42.757L42.4175 66.2262C42.4175 66.2262 41.9828 66.2517 41.6919 66.3287ZM41.7189 68.5346C41.7189 68.5346 41.2768 68.5901 40.9859 68.6558C40.6994 68.7426 40.1621 69.0164 40.1621 69.0164L40.6468 67.4096H42.0613L41.7189 68.5346ZM40.9304 71.1569H39.5189L39.9281 69.8008H41.3353L40.9304 71.1569ZM44.3297 67.4096H46.3644L46.072 68.3564H44.0104L43.7008 69.3916H45.5048L44.1388 71.3149C44.0432 71.4562 43.9574 71.5062 43.8622 71.546C43.7665 71.5945 43.641 71.6515 43.4957 71.6515H42.9952L42.6514 72.7853H43.9603C44.6407 72.7853 45.0426 72.4757 45.3394 72.0694L46.276 70.7875L46.4772 72.0892C46.5199 72.333 46.6951 72.4757 46.8137 72.5312C46.9448 72.5969 47.0802 72.7097 47.2715 72.7265C47.4766 72.7352 47.6248 72.7422 47.7234 72.7422H48.3665L48.7527 71.4734H48.499C48.3534 71.4734 48.1026 71.4489 48.0599 71.4033C48.0172 71.3478 48.0172 71.2624 47.9942 71.1324L47.7902 69.8278H46.9546L47.3211 69.3916H49.3787L49.6952 68.3564H47.7902L48.0869 67.4096H49.9861L50.3384 66.2419H44.6762L44.3297 67.4096ZM27.1452 71.4205L27.6201 69.8407H29.5718L29.9285 68.6657H27.9749L28.2731 67.6933H30.1822L30.5359 66.5555H25.7592L25.4128 67.6933H26.498L26.2085 68.6657H25.1204L24.7598 69.8608H25.8446L25.2116 71.9509C25.1262 72.2276 25.2518 72.3331 25.3314 72.4616C25.4128 72.5868 25.4953 72.6696 25.6807 72.7167C25.872 72.7594 26.003 72.785 26.1811 72.785H28.3815L28.7735 71.4833L27.7982 71.6173C27.6098 71.6173 27.0882 71.5947 27.1452 71.4205ZM27.369 63.8577L26.8744 64.7517C26.7686 64.947 26.6733 65.0681 26.5875 65.124C26.512 65.1711 26.3623 65.1908 26.1455 65.1908H25.8874L25.5425 66.3344H26.3995C26.8116 66.3344 27.1281 66.1833 27.2792 66.1077C27.4417 66.0209 27.4844 66.0705 27.61 65.9493L27.8994 65.6985H30.5758L30.9309 64.5078H28.9718L29.3139 63.8577H27.369ZM31.3202 71.4435C31.2746 71.3778 31.3074 71.2621 31.3771 71.0212L32.1086 68.6H34.7109C35.0901 68.5945 35.3639 68.5901 35.542 68.5774C35.7333 68.5573 35.9414 68.489 36.168 68.3664C36.402 68.2379 36.5217 68.1025 36.6229 67.947C36.7356 67.7918 36.9167 67.4524 37.0722 66.9289L37.9917 63.8649L35.2913 63.8806C35.2913 63.8806 34.4597 64.0033 34.0936 64.1387C33.7242 64.2898 33.1964 64.7118 33.1964 64.7118L33.4402 63.8719H31.7721L29.4367 71.6173C29.3538 71.918 29.2983 72.1363 29.2855 72.2674C29.2812 72.4086 29.4637 72.5484 29.5819 72.6539C29.7218 72.7594 29.9284 72.7423 30.1266 72.7594C30.335 72.7751 30.6314 72.785 31.0406 72.785H32.3225L32.716 71.4563L31.5684 71.5647C31.4458 71.5647 31.357 71.499 31.3202 71.4435ZM32.5806 66.9647H35.3139L35.1401 67.5093C35.1157 67.5221 35.0573 67.4823 34.7791 67.5151H32.4123L32.5806 66.9647ZM33.1281 65.1381H35.8844L35.6862 65.7941C35.6862 65.7941 34.3871 65.7813 34.179 65.8196C33.2636 65.978 32.7288 66.4672 32.7288 66.4672L33.1281 65.1381ZM35.2013 69.3331C35.1787 69.4145 35.1429 69.4641 35.0929 69.5013C35.0374 69.5371 34.9476 69.5499 34.8137 69.5499H34.4242L34.4472 68.8866H32.8272L32.7615 72.1291C32.759 72.3631 32.7816 72.4985 32.9528 72.6069C33.124 72.7424 33.6514 72.7595 34.3614 72.7595H35.3765L35.743 71.5458L34.8593 71.5944L34.5654 71.6115C34.5253 71.5944 34.487 71.5787 34.4443 71.536C34.407 71.4991 34.3442 71.5217 34.3545 71.2878L34.3614 70.4566L35.2882 70.4183C35.7886 70.4183 36.0025 70.2555 36.185 70.1003C36.3592 69.9518 36.4161 69.7809 36.4818 69.5499L36.6373 68.814H35.3638L35.2013 69.3331Z" fill="black"/>
<g clip-path="url(#clip1_25_507)">
<path d="M268.546 0C266.038 0 264.009 2.00771 264.009 4.48639V23.5144C264.009 25.9912 266.038 28 268.546 28H287.799C290.306 28 292.336 25.9913 292.336 23.5144V23.3198C292.252 23.285 284.974 20.2845 281.275 18.5264C278.779 21.562 275.561 23.4037 272.218 23.4037C266.567 23.4037 264.648 18.5148 267.324 15.2966C267.907 14.5951 268.9 13.9248 270.44 13.5496C272.85 12.9644 276.685 13.915 280.28 15.0875C280.926 13.9102 281.47 12.6136 281.875 11.2331H270.798V10.1242H276.51V8.13576H269.592V7.0262H276.51V4.18977C276.51 4.18977 276.51 3.712 277 3.712H279.792V7.02611H286.631V8.13595H279.792V10.1242H285.374C284.84 12.2874 284.029 14.2785 283.011 16.0263C284.705 16.6321 286.226 17.2066 287.36 17.5818C291.14 18.8322 292.2 18.985 292.336 19.001V4.48649C292.336 2.00781 290.306 9.33343e-05 287.8 9.33343e-05H268.547L268.546 0ZM271.653 15.1706C271.41 15.1734 271.167 15.1864 270.921 15.2103C270.213 15.2806 268.885 15.5892 268.158 16.2244C265.981 18.1012 267.284 21.5323 271.691 21.5323C274.252 21.5323 276.812 19.9136 278.823 17.3216C276.23 16.0714 273.998 15.1437 271.653 15.1706Z" fill="white"/>
<path d="M341.604 19.4649L340.34 22.1869L339.057 19.4649H337.803L339.755 23.2283V25.8535H340.905V23.2283L340.912 23.2137L342.857 19.4649H341.604ZM332.346 21.1117L333.238 23.7614H331.423L332.346 21.1117ZM333.512 24.5665L333.942 25.8532H335.147L332.774 19.4644H331.852L329.487 25.8532H330.693L331.142 24.5665H333.512ZM324.516 22.519H323.236V20.3334H324.516C325.16 20.3334 325.544 20.8912 325.544 21.4305C325.544 21.9581 325.184 22.5189 324.516 22.5189M324.581 19.4647H322.077V25.8535H323.236V23.3973H324.581C325.831 23.3973 326.704 22.5883 326.704 21.4305C326.704 20.2727 325.831 19.4648 324.581 19.4648M316.217 25.8535H317.377V19.4648H316.217L316.217 25.8535ZM308.063 19.4649V25.8536H311.965V24.9831H309.223V19.4649H308.063ZM301.46 21.1117L302.351 23.7614H300.537L301.46 21.1117ZM302.626 24.5665L303.056 25.8532H304.26L301.887 19.4644H300.967L298.601 25.8532H299.806L300.255 24.5665H302.626ZM310.786 6.97576H305.814V5.20932H311.58V4.10919H305.814V1.87084H303.244C302.962 1.87084 302.734 2.1053 302.734 2.39351V4.10919H297.009V5.20932H302.734V6.97585H297.902V8.07496H307.527C307.527 8.07496 306.994 10.1395 304.353 12.3582C301.988 10.5829 301.197 9.16921 301.197 9.16921H298.615C299.66 10.964 301.144 12.4012 302.743 13.5414C301.274 14.4871 299.37 15.3987 296.908 16.1286V17.4455C296.908 17.4455 300.706 16.7353 304.378 14.5907C308.055 16.7187 311.748 17.4455 311.748 17.4455V16.1989C309.385 15.346 307.512 14.408 306.042 13.5034C308.171 11.9391 310.038 9.81592 310.786 6.97576ZM326.938 2.0913H324.35V4.77223H317.97V5.85183H324.35V15.4905C324.327 15.7113 324.152 15.8832 323.932 15.895H322.616V17.0117H325.971C326.503 16.9902 326.926 16.5534 326.938 16.0122V5.85174H327.989V4.77214H326.938L326.938 2.0913ZM321.48 7.67054C321.385 7.47911 321.192 7.34714 320.967 7.34518H318.811L320.491 12.5898H323.042L321.48 7.67054ZM315.11 1.96436L312.141 8.92561H314.419V17.2087H316.91V6.22134H316.007L317.883 1.96446L315.11 1.96436ZM343.991 16.8288L343.081 13.7824C343.02 13.588 342.843 13.4474 342.632 13.4474H340.22L340.92 15.7873H338.084V11.254H343.652V10.1754H338.084V8.04145H343.652V6.96279H329.758V8.04145H335.325V10.1753H329.758V11.2539H335.325V15.7872H329.758V16.8659H343.991L343.98 16.8288H343.991ZM332.653 4.38919H340.761V5.98072H343.658V4.095C343.657 4.09108 343.657 4.08912 343.657 4.08426C343.657 3.66025 343.322 3.31734 342.907 3.31052H338.22V1.82642H335.189V3.31043H329.757V5.98072H332.653L332.653 4.38919Z" fill="white"/>
</g>
<path d="M178.85 4C173.525 4 168.766 6.72607 168.766 11.7627C168.766 17.5387 177.206 17.9376 177.206 20.8393C177.206 22.0611 175.788 23.1548 173.367 23.1548C169.931 23.1548 167.362 21.6266 167.362 21.6266L166.263 26.7091C166.263 26.7091 169.222 28 173.15 28C178.972 28 183.554 25.14 183.554 20.0174C183.554 13.914 175.079 13.5268 175.079 10.8336C175.079 9.8764 176.242 8.82775 178.657 8.82775C181.381 8.82775 183.604 9.9392 183.604 9.9392L184.679 5.03041C184.679 5.03041 182.261 4 178.85 4ZM130.129 4.37051L130 5.11145C130 5.11145 132.24 5.51637 134.258 6.32419C136.856 7.25043 137.041 7.7897 137.479 9.46451L142.247 27.6179H148.639L158.486 4.37051H152.108L145.781 20.1765L143.199 6.77856C142.963 5.24521 141.763 4.37051 140.295 4.37051H130.129ZM161.05 4.37051L156.047 27.6178H162.128L167.113 4.37044H161.05V4.37051ZM194.966 4.37051C193.499 4.37051 192.722 5.14586 192.152 6.50074L183.243 27.6178H189.62L190.854 24.0983H198.623L199.373 27.6178H205L200.091 4.37051H194.966ZM195.795 10.6512L197.685 19.3748H192.621L195.795 10.6512Z" fill="white"/>
<g clip-path="url(#clip2_25_507)">
<path fill-rule="evenodd" clip-rule="evenodd" d="M22.7751 28.538H36.6926V3.41602H22.7751V28.538Z" fill="white"/>
<path fill-rule="evenodd" clip-rule="evenodd" d="M23.6589 15.9769C23.6589 10.8803 26.0346 6.34107 29.734 3.41596C27.0282 1.27638 23.6147 0 19.9043 0C11.1204 0 4 7.15323 4 15.9769C4 24.8007 11.1204 31.9539 19.9043 31.9539C23.6147 31.9539 27.0282 30.6775 29.734 28.5379C26.0346 25.6124 23.6589 21.0736 23.6589 15.9769Z" fill="white"/>
<path fill-rule="evenodd" clip-rule="evenodd" d="M54.9715 25.8771V25.2571H54.8102L54.6251 25.6836L54.4395 25.2571H54.2783V25.8771H54.3918V25.4093L54.5659 25.8127H54.6839L54.8579 25.4084V25.8771H54.9715ZM53.9504 25.8771V25.3627H54.1572V25.258H53.6314V25.3627H53.8378V25.8771H53.9504ZM55.4681 15.9767C55.4681 24.8004 48.3472 31.9536 39.5638 31.9536C35.8534 31.9536 32.4394 30.6773 29.7341 28.5377C33.4335 25.6126 35.8092 21.0733 35.8092 15.9767C35.8092 10.8805 33.4335 6.34127 29.7341 3.41572C32.4394 1.27614 35.8534 -0.000244141 39.5638 -0.000244141C48.3472 -0.000244141 55.4681 7.15299 55.4681 15.9767Z" fill="white"/>
</g>
<defs>
<clipPath id="clip0_25_507">
<rect width="50" height="50" fill="white" transform="translate(279 38)"/>
</clipPath>
<clipPath id="clip1_25_507">
<rect width="80" height="28" fill="white" transform="translate(264)"/>
</clipPath>
<clipPath id="clip2_25_507">
<rect width="52" height="32" fill="white" transform="translate(4)"/>
</clipPath>
</defs>
</svg>
