<svg width="868" height="283" viewBox="0 0 868 283" fill="none" xmlns="http://www.w3.org/2000/svg">
<path d="M15 198.5C423.46 347.519 601.653 292.967 853 15" stroke="url(#paint0_linear_25_606)" stroke-width="5"/>
<path d="M863 15C863 20.5228 858.523 25 853 25C847.477 25 843 20.5228 843 15C843 9.47715 847.477 5 853 5C858.523 5 863 9.47715 863 15Z" fill="#909EA9"/>
<path d="M853 0.5C861.008 0.5 867.5 6.99187 867.5 15C867.5 23.0081 861.008 29.5 853 29.5C844.992 29.5 838.5 23.0081 838.5 15C838.5 6.99187 844.992 0.5 853 0.5Z" stroke="#909EA9"/>
<path d="M705 165C705 170.523 700.523 175 695 175C689.477 175 685 170.523 685 165C685 159.477 689.477 155 695 155C700.523 155 705 159.477 705 165Z" fill="#9EAAB3"/>
<path d="M695 150.5C703.008 150.5 709.5 156.992 709.5 165C709.5 173.008 703.008 179.5 695 179.5C686.992 179.5 680.5 173.008 680.5 165C680.5 156.992 686.992 150.5 695 150.5Z" stroke="#9EAAB3"/>
<path d="M495 268C495 273.523 490.523 278 485 278C479.477 278 475 273.523 475 268C475 262.477 479.477 258 485 258C490.523 258 495 262.477 495 268Z" fill="#B7BFC5"/>
<path d="M485 253.5C493.008 253.5 499.5 259.992 499.5 268C499.5 276.008 493.008 282.5 485 282.5C476.992 282.5 470.5 276.008 470.5 268C470.5 259.992 476.992 253.5 485 253.5Z" stroke="#B7BFC5"/>
<path d="M234 261C234 266.523 229.523 271 224 271C218.477 271 214 266.523 214 261C214 255.477 218.477 251 224 251C229.523 251 234 255.477 234 261Z" fill="#CFD4D6"/>
<path d="M224 246.5C232.008 246.5 238.5 252.992 238.5 261C238.5 269.008 232.008 275.5 224 275.5C215.992 275.5 209.5 269.008 209.5 261C209.5 252.992 215.992 246.5 224 246.5Z" stroke="#CFD4D6"/>
<path d="M25 198C25 203.523 20.5228 208 15 208C9.47715 208 5 203.523 5 198C5 192.477 9.47715 188 15 188C20.5228 188 25 192.477 25 198Z" fill="#E4E6E6"/>
<path d="M15 183.5C23.0081 183.5 29.5 189.992 29.5 198C29.5 206.008 23.0081 212.5 15 212.5C6.99187 212.5 0.5 206.008 0.5 198C0.5 189.992 6.99187 183.5 15 183.5Z" stroke="#E4E6E6"/>
<defs>
<linearGradient id="paint0_linear_25_606" x1="15" y1="147.183" x2="853" y2="147.183" gradientUnits="userSpaceOnUse">
<stop stop-color="#E6E8E7"/>
<stop offset="1" stop-color="#8F9DA8"/>
</linearGradient>
</defs>
</svg>
